# File created by Blade
# Date/Time:  Tue Apr 07 21:25:57 2015
# Frame Rate: 120.000 fps
#------------------------------------------------------
:FULLY-SPECIFIED
:DEGREES
512
root 21.217119 29.502691 5.193696 28.584462 -83.784290 12.860157
Spine 3.748500 -5.637299 -1.230709
Head -30.956047 -3.749430 7.977057
LeftShoulder 0.524712 22.531960 23.003168
LeftArm 81.057507 -4.843222 -65.186375
LeftForeArm 14.893734 -0.000000 43.639500
LeftHand 19.406255 -0.000000 19.263420
LeftHandThumb1 -26.253704 0.000000 33.147579
RightShoulder 9.523307 16.842307 -14.473512
RightArm 36.475340 -4.508037 82.353882
RightForeArm -0.567374 -0.000000 40.496766
RightHand 21.564164 -0.000000 -14.932074
RightHandThumb1 -24.326973 -0.000000 -32.862282
LeftUpLeg -71.064544 -6.535014 2.834148
LeftLeg 54.443243 -0.000000 -0.000000
LeftFoot -21.773912 0.977874 -15.704635
LeftToeBase -15.993804 -0.000000 0.000000
RightUpLeg -73.635857 3.886393 0.478168
RightLeg 63.416876 -0.000000 -0.000000
RightFoot -20.395918 -14.574690 11.162101
RightToeBase -17.518611 -0.000000 0.000000
513
root 21.002519 29.141200 5.214326 28.620155 -83.838425 10.581030
Spine 4.047882 -5.235992 -1.070270
Head -28.531602 -4.183033 7.326148
LeftShoulder 0.432030 20.835257 24.114626
LeftArm 83.516459 -7.969276 -65.828985
LeftForeArm 14.084317 -0.000000 47.344971
LeftHand 19.855581 -0.000000 21.113617
LeftHandThumb1 -26.253704 0.000000 33.147579
RightShoulder 10.093838 19.169427 -15.886412
RightArm 38.471680 -2.482367 81.174810
RightForeArm -2.022619 -0.000000 44.076510
RightHand 21.748380 -0.000000 -15.520948
RightHandThumb1 -24.326973 -0.000000 -32.862282
LeftUpLeg -69.848067 -7.004796 2.950139
LeftLeg 57.308910 -0.000000 -0.000000
LeftFoot -23.598572 2.159547 -14.777609
LeftToeBase -16.413398 -0.000000 0.000000
RightUpLeg -71.832291 3.733666 1.167073
RightLeg 66.203149 -0.000000 -0.000000
RightFoot -21.295335 -14.059488 11.121636
RightToeBase -19.875857 -0.000000 0.000000
514
root 20.762079 28.787799 5.250934 26.337872 -84.032820 10.473186
Spine 4.570856 -4.690494 -1.226802
Head -26.260925 -4.539976 6.794255
LeftShoulder 0.359160 18.893195 25.501614
LeftArm 85.972906 -11.350842 -66.810415
LeftForeArm 12.933672 -0.000000 50.432385
LeftHand 20.440172 -0.000000 23.750855
LeftHandThumb1 -26.253704 0.000000 33.147579
RightShoulder 10.456726 21.617537 -17.536308
RightArm 40.338602 0.145944 80.211468
RightForeArm -3.522728 -0.000000 46.969810
RightHand 22.394653 0.000000 -16.696662
RightHandThumb1 -24.326973 -0.000000 -32.862282
LeftUpLeg -68.206486 -7.608982 2.761509
LeftLeg 59.810173 -0.000000 -0.000000
LeftFoot -25.584371 3.449294 -14.071831
LeftToeBase -16.652840 -0.000000 0.000000
RightUpLeg -69.585323 3.539085 1.467666
RightLeg 68.054043 -0.000000 -0.000000
RightFoot -22.665377 -13.480458 10.952077
RightToeBase -22.383558 -0.000000 0.000000
515
root 20.495694 28.452710 5.269279 26.206899 -84.142050 8.397947
Spine 4.903045 -4.010697 -1.149864
Head -24.114105 -4.801346 6.377053
LeftShoulder 0.523499 16.330438 27.483590
LeftArm 87.590544 -14.796986 -68.335505
LeftForeArm 11.178732 -0.000000 53.380709
LeftHand 21.285496 -0.000000 26.197296
LeftHandThumb1 -26.253704 0.000000 33.147579
RightShoulder 10.567792 23.902283 -19.332123
RightArm 41.934877 2.802366 78.305983
RightForeArm -4.300477 -0.000000 49.774064
RightHand 22.921490 0.000000 -17.913635
RightHandThumb1 -24.326973 -0.000000 -32.862282
LeftUpLeg -66.577532 -8.097006 2.719715
LeftLeg 62.086385 -0.000000 -0.000000
LeftFoot -27.678786 4.630691 -13.650060
LeftToeBase -16.765103 -0.000000 0.000000
RightUpLeg -67.136651 3.399548 1.926216
RightLeg 68.786689 -0.000000 -0.000000
RightFoot -25.000728 -13.095662 10.498007
RightToeBase -22.893521 -0.000000 0.000000
516
root 20.203310 28.171252 5.242136 29.552055 -84.120909 3.227027
Spine 4.928396 -3.213423 -0.774641
Head -22.333000 -5.027276 6.263160
LeftShoulder 0.630043 13.881555 29.911424
LeftArm 88.982243 -18.585971 -70.113117
LeftForeArm 9.348782 -0.000000 56.290403
LeftHand 21.705686 -0.000000 28.633974
LeftHandThumb1 -26.253704 0.000000 33.147579
RightShoulder 10.316304 26.000336 -21.216178
RightArm 43.400549 5.717909 76.117027
RightForeArm -4.650594 -0.000000 52.163280
RightHand 23.107000 -0.000000 -19.775949
RightHandThumb1 -24.326973 -0.000000 -32.862282
LeftUpLeg -65.102345 -8.266865 2.951128
LeftLeg 64.070377 -0.000000 -0.000000
LeftFoot -29.716236 5.463251 -13.593433
LeftToeBase -16.445889 -0.000000 0.000000
RightUpLeg -64.610509 3.573372 2.717153
RightLeg 68.595394 -0.000000 -0.000000
RightFoot -28.173282 -13.563093 10.375706
RightToeBase -22.165528 -0.000000 0.000000
517
root 19.885908 27.960480 5.244393 28.999418 -84.025589 2.498916
Spine 4.546505 -2.720860 -0.693285
Head -21.145515 -5.398388 6.247408
LeftShoulder 0.473856 12.017020 32.207138
LeftArm 90.705983 -22.912275 -71.945977
LeftForeArm 7.377475 0.000000 59.026753
LeftHand 22.914405 0.000000 31.490041
LeftHandThumb1 -26.253704 0.000000 33.147579
RightShoulder 9.939959 28.237373 -23.308729
RightArm 44.116268 9.154681 74.303129
RightForeArm -5.237222 0.000000 54.531346
RightHand 23.161605 -0.000000 -21.430772
RightHandThumb1 -24.326973 -0.000000 -32.862282
LeftUpLeg -63.749937 -8.714821 2.889345
LeftLeg 65.464039 -0.000000 -0.000000
LeftFoot -31.513934 6.156204 -13.493035
LeftToeBase -15.844720 -0.000000 0.000000
RightUpLeg -62.497920 3.336351 3.279530
RightLeg 68.492663 -0.000000 -0.000000
RightFoot -31.196472 -14.534845 10.028799
RightToeBase -20.809786 -0.000000 0.000000
518
root 19.583854 27.843236 5.280956 24.532341 -83.915637 6.102518
Spine 4.021596 -2.509354 -0.965692
Head -20.582834 -5.985737 6.320640
LeftShoulder 0.097670 11.007856 34.340165
LeftArm 93.187895 -28.000871 -73.912926
LeftForeArm 5.683194 0.000000 61.263337
LeftHand 22.768105 -0.000000 34.113168
LeftHandThumb1 -26.253704 0.000000 33.147579
RightShoulder 9.353998 29.958697 -25.701479
RightArm 45.010975 13.165405 72.602171
RightForeArm -5.297600 -0.000000 56.514387
RightHand 23.475834 0.000000 -22.134734
RightHandThumb1 -24.326973 -0.000000 -32.862282
LeftUpLeg -62.469728 -9.410771 2.575504
LeftLeg 66.090442 -0.000000 -0.000000
LeftFoot -32.645186 6.297823 -13.551300
LeftToeBase -15.866967 -0.000000 0.000000
RightUpLeg -60.859047 2.720519 3.484915
RightLeg 68.756820 -0.000000 -0.000000
RightFoot -33.177388 -15.233246 10.018330
RightToeBase -19.820913 -0.000000 0.000000
519
root 19.331187 27.859281 5.312722 21.320896 -83.778320 9.067652
Spine 3.272069 -2.164523 -1.200124
Head -20.758323 -6.642723 6.667911
LeftShoulder -0.476585 10.258129 36.490253
LeftArm 96.374702 -33.243073 -76.677041
LeftForeArm 4.434537 0.000000 62.733027
LeftHand 23.534553 -0.000000 37.134200
LeftHandThumb1 -26.253704 0.000000 33.147579
RightShoulder 8.516384 31.181665 -28.164268
RightArm 45.933236 17.720034 70.985188
RightForeArm -5.754904 -0.000000 58.231131
RightHand 23.476392 -0.000000 -23.347064
RightHandThumb1 -24.326973 -0.000000 -32.862282
LeftUpLeg -61.659902 -9.853048 2.395892
LeftLeg 66.010108 -0.000000 -0.000000
LeftFoot -32.748021 6.108899 -13.540433
LeftToeBase -16.648832 -0.000000 0.000000
RightUpLeg -60.027310 2.109938 3.626815
RightLeg 68.915304 -0.000000 -0.000000
RightFoot -33.421188 -15.262198 10.282624
RightToeBase -19.966396 -0.000000 0.000000
520
root 19.097729 28.010769 5.309008 23.472842 -83.625578 7.022497
Spine 2.411626 -1.702986 -0.897843
Head -21.307220 -7.166388 7.035604
LeftShoulder -1.483872 10.654507 38.262981
LeftArm 100.389543 -38.968935 -79.241721
LeftForeArm 2.532500 0.000000 63.128637
LeftHand 24.260215 -0.000000 42.692839
LeftHandThumb1 -26.253704 0.000000 33.147579
RightShoulder 7.651466 31.888025 -30.688177
RightArm 46.664885 22.539894 69.291265
RightForeArm -5.251755 -0.000000 59.758446
RightHand 23.031019 -0.000000 -24.140271
RightHandThumb1 -24.326973 -0.000000 -32.862282
LeftUpLeg -61.076626 -9.726102 2.649514
LeftLeg 65.354109 -0.000000 -0.000000
LeftFoot -32.032372 5.877079 -13.434288
LeftToeBase -17.891604 -0.000000 0.000000
RightUpLeg -59.421828 1.942274 4.104143
RightLeg 68.145584 -0.000000 -0.000000
RightFoot -32.701239 -15.468626 10.272285
RightToeBase -20.594632 -0.000000 0.000000
521
root 18.851611 28.255429 5.302233 25.978728 -83.350258 4.416595
Spine 1.974449 -0.417284 -0.527337
Head -22.168535 -8.435736 7.598974
LeftShoulder -2.285004 14.386868 38.523713
LeftArm 110.907998 -45.073677 -84.196556
LeftForeArm 0.113331 -0.000000 60.209671
LeftHand 25.589193 -0.000000 50.268266
LeftHandThumb1 -26.253704 0.000000 33.147579
RightShoulder 5.811602 31.509404 -33.675176
RightArm 47.045286 27.342315 66.871259
RightForeArm -3.809983 0.000000 60.256183
RightHand 23.299390 -0.000000 -25.251064
RightHandThumb1 -24.326973 -0.000000 -32.862282
LeftUpLeg -60.062552 -9.508127 2.857354
LeftLeg 64.179714 -0.000000 -0.000000
LeftFoot -30.874510 5.606281 -13.286458
LeftToeBase -19.020658 -0.000000 0.000000
RightUpLeg -58.397132 1.836967 4.571365
RightLeg 66.800414 -0.000000 -0.000000
RightFoot -31.530853 -15.892321 10.400177
RightToeBase -21.558072 -0.000000 0.000000
